<svg id="splitsvg" version="1.1" xmlns="http://www.w3.org/2000/svg" xmlns:xlink="http://www.w3.org/1999/xlink" width="1380" height="469"><g id="svgg"><path id="path0" d="M25.600 64.848 C 22.699 66.617,22.985 54.846,22.874 177.107 L 22.775 286.486 28.183 286.486 L 33.591 286.486 33.591 194.788 L 33.591 103.089 45.849 103.085 C 59.089 103.081,362.553 103.082,363.029 103.086 C 363.188 103.088,363.362 124.329,363.415 150.290 L 363.514 197.490 368.726 197.490 L 373.938 197.490 374.034 132.819 C 374.142 60.072,374.406 66.735,371.336 64.863 C 369.369 63.664,27.566 63.649,25.600 64.848 M55.510 83.693 L 55.614 91.904 44.699 91.801 L 33.784 91.699 33.679 83.988 C 33.621 79.747,33.660 76.052,33.766 75.777 C 33.917 75.381,36.189 75.299,44.681 75.380 L 55.405 75.483 55.510 83.693 M330.309 83.591 L 330.309 91.699 198.552 91.796 L 66.795 91.893 66.795 83.849 C 66.795 79.424,66.911 75.688,67.053 75.546 C 67.195 75.405,126.486 75.332,198.810 75.386 L 330.309 75.483 330.309 83.591 M363.010 83.301 C 363.090 87.708,363.050 91.446,362.922 91.609 C 362.795 91.771,357.924 91.858,352.098 91.802 L 341.506 91.699 341.401 83.988 C 341.343 79.747,341.381 76.055,341.485 75.783 C 341.633 75.399,344.025 75.290,352.270 75.290 L 362.866 75.290 363.010 83.301 M189.245 106.210 C 187.922 106.872,186.412 107.991,185.850 108.728 L 184.839 110.054 187.400 124.621 C 190.416 141.769,190.387 141.350,188.649 143.089 C 187.101 144.636,185.435 144.817,183.514 143.646 C 181.993 142.718,182.003 142.754,179.735 129.730 C 177.431 116.494,177.221 115.444,176.879 115.444 C 176.258 115.444,171.072 118.777,168.147 121.055 C 156.035 130.488,148.421 144.875,147.259 160.521 L 146.993 164.093 145.194 164.093 C 135.709 164.093,133.993 177.903,143.232 179.884 C 146.022 180.483,257.839 180.483,260.629 179.884 C 269.868 177.903,268.152 164.093,258.667 164.093 L 256.868 164.093 256.602 160.521 C 255.437 144.832,247.859 130.514,235.714 121.055 C 232.796 118.782,227.603 115.444,226.986 115.444 C 226.622 115.444,226.634 115.383,224.133 129.641 C 222.953 136.371,221.755 142.112,221.427 142.613 C 220.010 144.775,217.120 144.996,215.212 143.089 C 213.473 141.349,213.445 141.762,216.465 124.628 L 219.031 110.066 218.015 108.734 C 217.449 107.991,215.944 106.875,214.616 106.210 L 212.232 105.019 201.931 105.019 L 191.629 105.019 189.245 106.210 M278.572 142.693 C 275.969 144.051,275.473 145.295,275.121 151.351 C 274.234 166.625,274.107 167.407,272.462 167.641 C 271.871 167.725,271.654 167.990,271.732 168.533 C 272.233 172.029,272.204 176.051,271.666 177.781 C 270.953 180.074,271.004 180.157,272.652 179.390 C 273.359 179.060,275.716 178.206,277.888 177.493 C 284.702 175.254,284.532 175.691,285.581 157.722 C 285.720 155.336,286.015 153.351,286.254 153.191 C 286.883 152.772,297.214 152.834,297.476 153.259 C 297.707 153.632,298.108 157.781,298.859 167.549 C 299.459 175.347,299.557 175.486,305.922 177.554 C 310.254 178.961,313.952 180.572,316.625 182.217 C 320.928 184.864,321.702 184.560,330.349 176.834 C 336.731 171.132,337.778 170.270,338.322 170.270 C 338.833 170.270,345.966 177.552,346.258 178.371 C 346.323 178.554,343.759 181.756,340.559 185.487 C 331.848 195.646,331.976 195.231,335.426 202.007 C 337.446 205.973,338.038 207.507,339.959 213.748 C 341.108 217.482,342.270 218.002,350.699 218.555 C 354.137 218.781,358.340 219.085,360.039 219.232 L 363.127 219.498 363.235 225.260 C 363.294 228.428,363.207 231.151,363.042 231.310 C 362.876 231.469,358.571 231.889,353.475 232.243 C 341.569 233.072,341.055 233.309,339.640 238.610 C 338.848 241.580,336.851 246.746,335.760 248.649 C 331.846 255.472,331.791 255.272,340.347 265.222 C 343.320 268.678,345.903 271.770,346.087 272.092 C 346.408 272.655,338.957 280.695,338.114 280.695 C 337.939 280.695,335.593 278.740,332.900 276.351 C 330.207 273.962,327.566 271.629,327.032 271.166 C 326.499 270.704,325.627 269.945,325.097 269.481 C 322.663 267.353,320.522 266.886,318.340 268.008 C 311.432 271.561,308.892 272.699,306.013 273.533 C 301.638 274.801,301.653 274.786,303.364 276.027 C 305.427 277.524,307.221 279.672,308.380 282.034 L 309.374 284.062 311.927 283.142 C 313.330 282.636,315.747 281.622,317.297 280.889 L 320.116 279.556 321.923 281.187 C 322.917 282.085,323.921 282.992,324.153 283.205 C 333.950 292.165,336.521 293.973,339.115 293.724 L 341.046 293.538 349.826 284.703 C 362.063 272.391,361.968 273.650,351.580 261.554 C 345.504 254.479,345.087 253.896,345.563 253.135 C 346.262 252.017,349.035 245.164,349.035 244.554 C 349.035 243.643,350.097 243.493,363.998 242.436 C 374.465 241.640,374.128 242.197,374.129 225.676 C 374.130 208.061,375.108 209.119,357.874 208.095 C 349.264 207.584,349.554 207.691,348.465 204.610 C 347.763 202.626,346.067 198.712,345.271 197.242 C 345.197 197.105,348.024 193.630,351.552 189.520 C 362.104 177.229,362.248 178.630,349.075 165.478 L 340.988 157.405 338.922 157.233 C 336.440 157.027,335.987 157.339,326.305 165.909 L 320.109 171.393 316.908 169.922 C 315.147 169.113,312.814 168.158,311.723 167.800 L 309.739 167.148 309.501 164.752 C 309.370 163.434,309.089 159.575,308.875 156.178 C 308.175 145.020,308.036 144.458,305.608 143.035 L 303.986 142.085 291.858 142.087 C 281.614 142.089,279.550 142.183,278.572 142.693 M148.032 192.181 C 148.151 192.765,148.433 194.459,148.658 195.946 C 151.567 215.166,161.676 235.027,173.859 245.457 C 203.824 271.112,241.742 251.228,253.648 203.616 C 254.231 201.285,255.964 192.080,255.982 191.216 C 255.984 191.163,231.646 191.120,201.900 191.120 L 147.815 191.120 148.032 192.181 M268.477 213.602 C 255.825 226.327,255.821 224.708,268.539 237.467 L 277.002 245.957 280.586 242.388 C 282.557 240.424,284.170 238.556,284.170 238.236 C 284.170 237.916,281.435 234.915,278.093 231.568 L 272.017 225.482 278.362 219.129 L 284.707 212.775 280.867 208.889 L 277.027 205.003 268.477 213.602 M303.081 208.848 C 301.068 210.989,299.474 212.871,299.539 213.031 C 299.604 213.190,302.254 215.948,305.427 219.159 C 308.601 222.370,311.197 225.225,311.197 225.503 C 311.197 225.781,308.547 228.675,305.309 231.935 C 302.070 235.196,299.377 237.990,299.323 238.145 C 299.268 238.301,300.926 240.123,303.006 242.196 L 306.789 245.964 315.499 237.171 C 327.754 224.802,327.755 226.174,315.472 213.770 L 306.742 204.954 303.081 208.848 M109.073 214.743 C 106.304 215.727,105.015 218.114,105.024 222.246 C 105.033 225.949,104.200 239.147,103.923 239.700 C 103.783 239.981,102.278 240.689,100.579 241.273 C 97.269 242.410,93.973 243.822,89.983 245.810 L 87.494 247.050 84.577 244.419 C 82.973 242.971,79.583 239.859,77.044 237.502 C 68.365 229.446,69.376 229.107,53.200 245.507 C 38.348 260.564,38.135 260.965,42.404 265.719 C 43.412 266.842,44.839 268.470,45.574 269.338 C 46.310 270.205,48.713 272.953,50.915 275.445 L 54.918 279.976 53.066 283.907 C 52.048 286.069,50.558 289.733,49.754 292.050 C 48.951 294.366,48.152 296.404,47.979 296.577 C 47.805 296.751,43.032 297.157,37.372 297.480 C 21.363 298.394,22.691 296.222,22.857 321.236 C 22.986 340.762,22.904 340.162,25.636 341.594 C 26.955 342.284,36.701 343.179,43.436 343.227 C 48.062 343.261,48.050 343.254,48.985 346.156 C 50.073 349.535,51.933 354.081,53.500 357.192 C 55.191 360.550,55.747 359.429,48.059 368.147 C 39.547 377.799,39.110 378.621,40.830 381.738 C 42.023 383.899,65.331 407.247,66.985 407.939 C 69.943 409.174,72.246 407.579,85.199 395.323 C 87.541 393.108,87.376 393.135,90.019 394.515 C 91.155 395.109,93.388 396.139,94.981 396.805 C 98.224 398.162,98.488 398.263,101.737 399.390 L 104.054 400.193 104.322 405.019 C 105.618 428.341,102.881 425.869,127.403 425.869 L 145.060 425.869 146.371 424.995 C 148.678 423.458,148.920 422.432,149.396 412.162 C 149.916 400.936,149.983 400.450,151.083 400.015 C 151.549 399.830,153.842 398.934,156.178 398.023 C 158.514 397.112,161.708 395.707,163.277 394.901 C 166.814 393.085,166.595 393.070,168.919 395.289 C 181.006 406.830,184.260 409.070,187.215 407.888 C 189.370 407.025,212.996 382.887,213.706 380.822 C 214.551 378.362,213.023 375.244,209.125 371.476 L 207.776 370.171 200.606 370.089 C 194.073 370.014,192.716 370.166,193.819 370.847 C 194.607 371.335,200.825 378.796,200.705 379.110 C 200.417 379.861,185.321 395.042,184.984 394.920 C 184.781 394.847,183.863 394.093,182.944 393.243 C 182.024 392.394,178.681 389.353,175.514 386.486 L 169.755 381.274 167.407 381.286 C 165.348 381.297,164.748 381.490,162.548 382.853 C 157.893 385.736,151.797 388.335,145.753 390.013 C 139.876 391.645,139.623 392.136,139.027 403.089 C 138.790 407.442,138.599 411.829,138.603 412.838 L 138.610 414.672 127.238 414.672 L 115.865 414.672 115.647 413.417 C 115.527 412.727,115.261 408.514,115.055 404.054 C 114.548 393.087,113.966 391.371,110.476 390.558 C 104.582 389.184,98.056 386.491,90.347 382.250 C 86.297 380.021,85.400 380.375,77.942 387.149 C 74.720 390.076,71.400 393.062,70.564 393.785 L 69.044 395.099 61.163 387.225 C 56.828 382.894,53.282 379.217,53.282 379.053 C 53.282 378.889,56.167 375.499,59.694 371.520 C 68.235 361.884,68.307 361.688,65.330 356.371 C 63.529 353.155,63.110 352.318,61.398 348.502 C 60.459 346.409,59.126 342.428,58.086 338.610 C 56.527 332.886,56.606 332.913,37.934 331.807 L 33.591 331.550 33.591 320.203 C 33.591 311.461,33.702 308.823,34.073 308.710 C 34.339 308.630,38.726 308.355,43.822 308.099 C 56.617 307.458,56.446 307.550,58.511 300.193 C 59.836 295.473,61.944 290.213,64.116 286.210 C 68.501 278.127,68.748 279.098,59.691 268.800 C 56.272 264.912,53.421 261.580,53.356 261.396 C 53.290 261.212,56.779 257.457,61.109 253.051 L 68.982 245.041 72.960 248.679 C 85.825 260.441,86.435 260.763,90.644 258.005 C 95.242 254.992,103.277 251.610,110.108 249.811 C 114.234 248.725,115.444 244.335,115.444 230.446 C 115.444 229.043,115.553 227.350,115.686 226.683 L 115.929 225.471 127.173 225.573 L 138.417 225.676 138.663 230.502 C 139.375 244.447,139.294 243.977,140.782 242.733 C 142.494 241.301,145.049 240.131,147.603 239.610 L 149.925 239.137 149.858 235.881 C 149.561 221.542,148.768 216.834,146.403 215.363 L 144.981 214.479 127.606 214.405 C 116.105 214.356,109.840 214.470,109.073 214.743 M153.861 249.676 C 153.436 249.768,151.612 250.116,149.807 250.451 C 114.693 256.960,88.151 291.862,91.470 327.162 C 93.513 348.891,104.386 358.140,131.620 361.312 C 139.083 362.182,262.399 362.323,270.656 361.471 C 299.026 358.546,310.485 349.070,312.418 326.935 C 315.670 289.690,285.891 253.352,249.035 249.592 L 246.525 249.336 245.845 251.944 C 244.546 256.931,239.296 266.985,231.362 279.683 C 224.203 291.141,211.895 309.261,211.700 308.629 C 211.585 308.256,209.653 280.998,209.653 279.750 C 209.653 279.205,210.356 278.425,211.770 277.401 C 214.341 275.539,216.385 272.938,217.603 269.976 C 218.342 268.180,218.859 265.250,218.436 265.251 C 218.383 265.251,217.384 265.615,216.216 266.060 C 208.074 269.160,195.787 269.160,187.645 266.060 C 186.477 265.615,185.478 265.251,185.425 265.251 C 185.002 265.250,185.519 268.180,186.258 269.976 C 187.476 272.938,189.520 275.539,192.091 277.401 C 193.505 278.425,194.208 279.205,194.208 279.750 C 194.208 281.011,192.275 308.258,192.159 308.635 C 191.993 309.172,181.413 293.733,174.438 282.775 C 165.719 269.078,159.285 256.988,158.049 251.979 L 157.418 249.421 156.026 249.466 C 155.260 249.490,154.286 249.585,153.861 249.676 M363.578 253.539 C 363.436 253.681,363.320 283.739,363.320 320.335 L 363.320 386.873 349.903 386.922 C 342.524 386.948,310.425 386.992,278.571 387.018 L 220.656 387.066 220.549 392.568 L 220.442 398.069 295.067 398.069 C 378.412 398.068,371.315 398.310,373.255 395.406 L 374.131 394.094 374.131 323.688 L 374.131 253.282 368.983 253.282 C 366.152 253.282,363.719 253.398,363.578 253.539 M102.668 270.337 C 80.442 281.340,68.170 307.441,73.564 332.239 C 74.217 335.240,75.209 338.624,75.686 339.474 C 75.893 339.842,76.062 340.331,76.062 340.560 C 76.062 341.864,80.326 349.570,83.209 353.475 C 97.332 372.602,122.040 380.364,144.648 372.774 C 150.944 370.661,151.852 369.870,149.395 368.644 C 143.924 365.913,141.452 365.431,130.888 365.034 C 121.931 364.697,117.683 364.025,112.355 362.103 C 89.195 353.748,77.177 327.185,86.090 304.054 C 86.253 303.629,87.266 301.458,88.340 299.228 C 89.414 296.998,90.637 294.305,91.057 293.243 C 92.749 288.969,95.842 282.809,97.329 280.752 C 98.195 279.553,99.932 277.008,101.188 275.097 C 102.443 273.185,103.928 271.057,104.488 270.367 C 105.736 268.826,105.720 268.826,102.668 270.337 M126.950 323.322 C 133.333 326.644,133.227 340.534,126.795 343.648 C 119.151 347.349,113.661 332.471,119.957 325.116 C 121.977 322.756,124.578 322.089,126.950 323.322 M180.032 323.318 C 182.775 324.505,182.779 324.522,181.462 328.186 C 180.813 329.991,180.211 331.673,180.124 331.925 C 180.009 332.259,179.598 332.280,178.599 332.005 C 176.863 331.525,175.676 332.094,175.676 333.404 C 175.676 334.569,177.203 335.071,178.854 334.447 C 179.686 334.133,180.006 334.143,180.124 334.485 C 180.211 334.736,180.791 336.550,181.413 338.516 L 182.545 342.089 181.520 342.819 C 175.371 347.198,169.305 342.611,169.305 333.582 C 169.305 325.211,174.009 320.710,180.032 323.318 M196.767 323.520 C 197.643 323.918,198.482 324.440,198.630 324.680 C 199.104 325.448,196.532 332.518,195.870 332.264 C 193.674 331.421,191.892 331.814,191.892 333.141 C 191.892 334.583,194.032 335.284,195.705 334.389 C 196.293 334.074,196.533 334.501,197.610 337.787 C 199.138 342.448,199.143 342.304,197.394 343.183 C 191.367 346.213,186.093 342.517,185.448 334.812 C 184.739 326.328,190.435 320.645,196.767 323.520 M305.111 323.239 C 307.078 323.828,307.170 324.143,306.358 327.510 C 305.523 330.978,305.688 330.850,304.214 329.172 C 302.850 327.618,301.425 327.422,301.252 328.764 C 301.179 329.336,301.789 329.953,303.603 331.139 C 310.881 335.897,307.480 345.274,298.863 344.206 C 294.049 343.609,293.832 343.290,294.926 338.417 L 295.620 335.328 296.274 336.579 C 297.067 338.098,298.500 339.103,299.387 338.763 C 300.481 338.343,299.916 337.009,298.106 335.737 C 295.320 333.780,294.788 332.796,294.788 329.604 C 294.788 323.899,298.884 321.373,305.111 323.239 M105.501 326.158 L 106.881 329.151 106.915 326.158 L 106.950 323.166 110.232 323.166 L 113.514 323.166 113.514 333.591 L 113.514 344.015 111.013 344.015 L 108.513 344.015 107.186 341.216 L 105.859 338.417 105.825 341.216 L 105.792 344.015 102.510 344.015 L 99.228 344.015 99.228 333.591 L 99.228 323.166 101.674 323.166 L 104.121 323.166 105.501 326.158 M164.885 332.625 C 166.073 337.722,167.167 342.370,167.314 342.954 L 167.582 344.015 164.316 344.015 L 161.049 344.015 160.725 342.375 L 160.400 340.734 158.108 340.734 L 155.816 340.734 155.491 342.375 L 155.167 344.015 151.882 344.015 C 148.932 344.015,148.618 343.946,148.803 343.340 C 148.916 342.968,149.973 338.494,151.152 333.398 C 152.331 328.301,153.376 323.909,153.474 323.636 C 153.609 323.263,154.771 323.168,158.188 323.250 L 162.723 323.359 164.885 332.625 M208.494 333.591 L 208.494 344.015 205.405 344.015 L 202.317 344.015 202.317 333.591 L 202.317 323.166 205.405 323.166 L 208.494 323.166 208.494 333.591 M223.444 323.927 C 229.044 327.341,229.287 339.170,223.832 342.780 C 222.386 343.737,221.886 343.834,217.693 343.960 L 213.127 344.097 213.127 333.631 L 213.127 323.166 217.664 323.167 C 221.491 323.169,222.395 323.287,223.444 323.927 M243.243 325.869 L 243.243 328.571 240.541 328.571 L 237.838 328.571 237.838 329.730 C 237.838 330.864,237.879 330.888,239.786 330.888 L 241.734 330.888 241.620 333.494 L 241.506 336.100 239.672 336.218 C 237.926 336.330,237.838 336.390,237.838 337.473 L 237.838 338.610 240.541 338.610 L 243.243 338.610 243.243 341.313 L 243.243 344.015 237.259 344.015 L 231.274 344.015 231.274 333.591 L 231.274 323.166 237.259 323.166 L 243.243 323.166 243.243 325.869 M252.868 326.351 L 254.374 329.537 254.407 326.351 L 254.440 323.166 257.529 323.166 L 260.618 323.166 260.618 333.591 L 260.618 344.015 258.189 344.015 L 255.761 344.015 254.366 341.023 L 252.970 338.031 252.933 341.023 L 252.896 344.015 249.807 344.015 L 246.718 344.015 246.718 333.591 L 246.718 323.166 249.040 323.166 L 251.362 323.166 252.868 326.351 M276.448 327.799 L 276.448 332.432 274.903 332.432 L 273.359 332.432 273.359 338.224 L 273.359 344.015 270.270 344.015 L 267.181 344.015 267.181 338.224 L 267.181 332.432 265.637 332.432 L 264.093 332.432 264.093 327.799 L 264.093 323.166 270.270 323.166 L 276.448 323.166 276.448 327.799 M291.813 325.772 L 291.699 328.378 289.093 328.493 C 286.489 328.607,286.486 328.608,286.486 329.747 C 286.486 330.842,286.557 330.888,288.224 330.888 L 289.961 330.888 289.961 333.591 L 289.961 336.293 288.224 336.293 C 286.551 336.293,286.486 336.336,286.486 337.452 L 286.486 338.610 289.189 338.610 L 291.892 338.610 291.892 341.313 L 291.892 344.015 285.907 344.015 L 279.923 344.015 279.923 333.591 L 279.923 323.166 285.925 323.166 L 291.927 323.166 291.813 325.772 M123.507 331.797 C 122.985 332.944,123.312 334.574,124.127 334.887 C 125.060 335.245,126.078 333.376,125.635 332.117 C 125.150 330.736,124.065 330.574,123.507 331.797 M157.582 333.128 C 157.340 334.253,157.143 335.251,157.143 335.347 C 157.143 335.443,157.585 335.521,158.126 335.521 C 159.051 335.521,159.093 335.437,158.843 334.073 C 158.303 331.129,158.051 330.940,157.582 333.128 M219.305 333.591 C 219.305 336.048,219.347 336.119,220.444 335.531 C 221.968 334.716,221.678 331.274,220.087 331.274 C 219.389 331.274,219.305 331.522,219.305 333.591  M -25 0 L -5 0 L -5 20 L -25 20 Z M 405 0 L 425 0 L 425 20 L 405 20 Z" stroke="none" fill="#000000" fill-rule="evenodd" transform="translate(30,0)"></path></g></svg>