<?xml version="1.0" standalone="no"?>
<!DOCTYPE svg PUBLIC "-//W3C//DTD SVG 20010904//EN"
 "http://www.w3.org/TR/2001/REC-SVG-20010904/DTD/svg10.dtd">
<svg version="1.0" xmlns="http://www.w3.org/2000/svg"
 width="1036.000000pt" height="1215.000000pt" viewBox="0 0 1036.000000 1215.000000"
 preserveAspectRatio="xMidYMid meet">

<g transform="translate(0.000000,1215.000000) scale(0.100000,-0.100000)"
fill="#000000" stroke="none">
<path d="M663 10470 c-18 -10 -40 -31 -50 -47 -17 -26 -18 -149 -21 -2860 l-2
-2833 140 0 140 0 0 2375 0 2375 318 0 c342 0 8202 0 8214 0 5 0 9 -550 10
-1222 l3 -1223 135 0 135 0 2 1675 c3 1656 3 1675 -17 1708 -11 18 -34 41 -52
52 -33 20 -60 20 -4478 20 -4388 0 -4445 0 -4477 -20z m775 -488 l2 -212 -282
2 -283 3 -3 200 c-1 110 0 205 3 212 3 11 62 13 282 11 l278 -3 3 -213z m7117
3 l0 -210 -3412 -3 -3413 -2 0 208 c0 115 3 212 7 215 3 4 1539 6 3412 5
l3406 -3 0 -210z m847 8 c2 -115 1 -211 -2 -216 -4 -4 -130 -6 -281 -5 l-274
3 -3 200 c-1 110 0 205 2 212 4 10 66 13 280 13 l274 0 4 -207z"/>
<path d="M4901 9399 c-34 -17 -73 -46 -87 -65 l-27 -34 67 -378 c36 -207 66
-392 66 -410 0 -47 -55 -102 -101 -102 -51 0 -96 32 -108 77 -5 21 -30 157
-56 303 -60 343 -65 370 -74 370 -16 0 -150 -86 -226 -145 -314 -245 -511
-617 -541 -1022 l-7 -93 -46 0 c-65 0 -145 -41 -179 -92 -36 -56 -43 -148 -14
-205 30 -58 82 -99 142 -112 36 -8 490 -11 1520 -11 1030 0 1484 3 1520 11 60
13 112 54 142 112 29 57 22 149 -14 205 -34 51 -114 92 -179 92 l-46 0 -7 93
c-30 406 -226 777 -541 1022 -76 59 -210 145 -226 145 -9 0 -9 2 -74 -368 -31
-174 -62 -323 -70 -336 -19 -28 -56 -46 -96 -46 -44 0 -99 56 -99 102 0 18 30
203 66 410 l67 377 -26 35 c-15 19 -54 48 -88 65 l-62 31 -267 0 -267 0 -62
-31z"/>
<path d="M7215 8454 c-67 -35 -80 -67 -89 -224 -16 -261 -28 -395 -37 -406 -6
-7 -20 -14 -32 -16 -16 -2 -21 -9 -19 -23 13 -91 12 -195 -2 -240 -8 -27 -14
-51 -11 -53 2 -2 18 3 37 12 18 8 79 30 135 49 57 18 112 42 124 53 46 41 54
87 76 459 3 62 11 113 17 117 16 11 284 10 291 -1 6 -10 16 -118 35 -371 7
-80 18 -156 25 -171 19 -36 45 -51 158 -88 113 -36 208 -78 278 -120 111 -69
131 -61 355 139 165 148 192 170 207 170 13 0 198 -189 205 -210 2 -5 -65 -87
-148 -184 -82 -97 -159 -190 -170 -208 -33 -54 -26 -95 38 -220 52 -103 67
-142 117 -304 17 -55 44 -86 88 -103 16 -6 101 -16 190 -22 89 -5 198 -13 242
-17 l80 -7 3 -149 c1 -82 -1 -153 -5 -157 -5 -4 -116 -15 -248 -24 -157 -11
-251 -22 -271 -31 -42 -20 -67 -58 -87 -134 -21 -77 -73 -211 -101 -260 -74
-129 -82 -170 -43 -231 12 -19 85 -109 162 -198 77 -90 144 -170 149 -178 6
-12 -17 -41 -95 -119 -57 -57 -107 -104 -112 -104 -4 0 -65 51 -135 113 -70
61 -138 122 -152 134 -14 12 -36 31 -50 43 -63 56 -118 68 -175 39 -179 -92
-245 -122 -319 -144 -48 -13 -92 -27 -97 -31 -5 -3 7 -18 28 -33 54 -39 100
-94 130 -156 l26 -52 66 24 c36 13 99 39 139 58 l73 34 47 -42 c26 -23 52 -46
58 -52 88 -81 292 -253 311 -264 17 -8 44 -11 76 -8 l50 4 228 229 c258 260
269 277 233 359 -10 24 -94 132 -188 241 -157 183 -168 198 -156 218 18 29 90
206 90 222 0 7 4 15 8 18 10 6 150 19 380 37 178 14 206 23 242 81 19 31 20
51 20 353 0 285 -2 324 -18 354 -36 72 -74 82 -403 101 -99 6 -189 14 -201 19
-13 5 -28 29 -43 72 -18 51 -62 152 -82 190 -2 4 71 94 162 200 184 215 210
254 201 307 -8 54 -40 91 -265 316 l-209 209 -54 5 c-51 4 -56 2 -110 -39 -31
-24 -128 -108 -217 -186 l-160 -142 -83 38 c-46 21 -106 46 -134 55 l-52 17
-6 62 c-3 34 -11 134 -16 222 -18 289 -22 304 -85 340 l-42 25 -314 0 c-265 0
-319 -3 -344 -16z"/>
<path d="M3834 7173 c3 -16 10 -59 16 -98 15 -95 63 -289 101 -405 138 -419
392 -783 687 -983 302 -204 661 -242 989 -106 479 200 863 783 983 1495 11 66
20 120 20 122 0 1 -630 2 -1401 2 l-1401 0 6 -27z"/>
<path d="M6959 6623 c-119 -120 -224 -229 -233 -243 -19 -29 -21 -105 -3 -138
7 -12 112 -121 232 -242 l219 -220 93 92 c51 51 93 99 93 108 0 8 -71 86 -157
172 l-158 158 165 165 164 164 -100 101 -99 100 -216 -217z"/>
<path d="M7850 6741 c-52 -56 -94 -104 -92 -108 2 -5 70 -76 153 -159 82 -83
149 -157 149 -165 0 -7 -69 -82 -152 -166 -84 -85 -154 -157 -156 -161 -1 -4
42 -51 96 -105 l98 -97 225 227 c318 321 318 285 0 606 l-226 229 -95 -101z"/>
<path d="M2825 6588 c-72 -25 -105 -87 -105 -194 0 -96 -21 -438 -28 -452 -4
-8 -43 -26 -87 -41 -86 -29 -171 -66 -274 -117 l-65 -33 -75 69 c-42 37 -130
118 -196 179 -154 143 -190 160 -268 127 -18 -7 -166 -148 -349 -335 -338
-342 -349 -356 -334 -435 4 -22 25 -55 54 -88 26 -29 63 -71 82 -94 19 -22 82
-93 139 -158 l103 -117 -48 -102 c-26 -56 -65 -151 -85 -211 -21 -60 -42 -113
-46 -117 -5 -5 -128 -15 -275 -24 -147 -8 -277 -19 -291 -24 -33 -13 -75 -65
-82 -104 -3 -18 -5 -237 -3 -487 3 -428 4 -457 22 -483 33 -49 68 -60 246 -73
91 -7 210 -13 265 -14 55 0 106 -4 112 -8 7 -4 21 -35 32 -67 28 -88 76 -206
117 -286 19 -39 33 -76 31 -83 -3 -6 -80 -96 -172 -201 -92 -104 -176 -203
-186 -220 -24 -38 -24 -91 -2 -132 10 -17 158 -174 329 -347 338 -344 355
-357 429 -336 38 11 176 127 392 331 28 27 56 49 61 49 6 0 34 -13 63 -28 30
-15 88 -42 129 -59 84 -35 91 -38 175 -67 l60 -21 7 -125 c25 -449 24 -435 47
-474 41 -66 41 -66 551 -66 l457 0 34 23 c60 39 66 66 78 332 14 291 16 303
44 315 12 4 72 28 132 51 61 24 143 60 184 81 41 21 79 38 85 38 6 0 34 -22
61 -48 180 -172 359 -322 395 -332 74 -20 92 -6 436 346 337 346 351 363 332
433 -11 39 -66 116 -122 170 l-35 34 -185 2 c-170 2 -205 -2 -176 -20 20 -13
181 -206 178 -214 -7 -19 -398 -413 -407 -409 -5 1 -29 21 -53 43 -24 22 -110
101 -192 175 l-149 135 -61 0 c-53 -1 -69 -6 -126 -41 -121 -75 -278 -142
-435 -185 -152 -43 -159 -55 -174 -339 -6 -113 -11 -226 -11 -252 l0 -48 -295
0 -294 0 -6 33 c-3 17 -10 127 -15 242 -5 116 -14 228 -19 250 -11 44 -56 89
-100 100 -152 35 -321 105 -521 215 -57 31 -100 37 -144 20 -14 -5 -94 -71
-177 -147 -84 -76 -170 -153 -191 -172 l-40 -34 -204 204 c-112 112 -204 207
-204 212 0 4 75 92 166 195 91 103 172 201 180 219 23 52 16 83 -34 173 -47
83 -57 105 -102 204 -24 54 -59 157 -86 256 -20 75 -45 115 -82 134 -25 12
-167 26 -439 42 l-113 7 0 294 c0 226 3 294 13 297 6 2 120 10 252 16 331 17
327 14 380 205 35 122 89 258 146 362 89 165 92 178 63 236 -10 18 -89 114
-178 215 -89 101 -162 187 -164 192 -2 5 89 102 201 216 l204 207 103 -94
c305 -279 322 -291 392 -269 23 6 52 19 66 28 119 78 327 165 504 212 51 13
80 36 102 78 13 27 36 291 36 423 0 37 3 81 6 98 l7 31 291 -2 291 -3 6 -125
c10 -184 20 -334 23 -338 2 -1 16 8 32 21 45 37 111 68 177 81 l60 12 -2 85
c-4 191 -22 426 -37 466 -11 29 -27 49 -52 65 l-37 23 -450 2 c-298 1 -460 -2
-480 -9z"/>
<path d="M3985 5683 c-11 -2 -58 -11 -105 -20 -118 -22 -327 -91 -443 -148
-467 -227 -820 -629 -978 -1114 -130 -399 -128 -832 6 -1107 144 -298 411
-440 944 -502 132 -15 307 -17 1811 -17 1749 0 1770 0 2025 45 307 54 526 162
660 327 290 356 247 1112 -95 1664 -226 365 -590 653 -995 788 -135 45 -269
77 -365 87 l-65 6 -18 -67 c-33 -130 -169 -390 -375 -719 -185 -297 -504 -766
-509 -749 -3 9 -53 715 -53 747 0 15 18 35 55 61 66 49 119 116 151 193 19 46
32 122 22 122 -2 0 -28 -9 -58 -21 -211 -80 -529 -80 -740 0 -30 12 -56 21
-57 21 -11 0 2 -76 21 -122 32 -77 85 -144 151 -193 37 -26 55 -46 55 -61 0
-32 -50 -738 -53 -748 -4 -14 -278 386 -459 670 -226 355 -393 668 -425 798
l-16 66 -36 -1 c-20 -1 -45 -3 -56 -6z m-697 -1907 c71 -37 114 -121 120 -233
8 -144 -38 -252 -124 -293 -79 -39 -154 -6 -208 90 -27 48 -31 66 -34 151 -3
72 0 110 12 147 18 53 76 129 110 142 33 14 94 11 124 -4z m1375 0 c71 -31 71
-31 37 -126 -17 -47 -33 -90 -35 -97 -3 -9 -13 -9 -39 -2 -45 12 -76 -2 -76
-36 0 -30 40 -43 82 -27 22 8 30 8 33 -1 2 -7 17 -54 34 -105 l29 -92 -27 -19
c-14 -10 -46 -24 -70 -31 -89 -24 -167 13 -216 101 -28 51 -30 60 -30 169 0
104 3 120 26 165 14 28 44 64 68 82 36 28 51 33 97 33 30 0 69 -6 87 -14z
m433 -5 c23 -10 45 -24 49 -30 3 -6 -8 -54 -25 -107 -25 -73 -36 -94 -47 -90
-57 22 -103 12 -103 -22 0 -38 55 -56 99 -33 15 8 21 -3 49 -88 18 -53 32
-102 32 -109 0 -15 -65 -47 -112 -56 -160 -29 -277 166 -224 374 38 149 158
217 282 161z m2806 7 c22 -6 42 -18 45 -25 4 -11 -24 -151 -33 -162 -1 -2 -17
13 -35 33 -35 41 -72 46 -77 11 -1 -15 14 -31 61 -61 74 -49 97 -87 97 -163 0
-93 -39 -150 -119 -171 -80 -21 -221 9 -221 47 0 10 9 54 19 98 l18 80 16 -32
c21 -40 58 -66 81 -57 28 11 14 45 -33 78 -72 51 -86 77 -86 159 0 85 21 130
75 158 40 22 132 25 192 7z m-5170 -75 l36 -78 1 78 1 77 85 0 85 0 0 -270 0
-270 -65 0 -65 0 -34 73 -34 72 -1 -72 -1 -73 -85 0 -85 0 0 270 0 270 63 0
64 0 35 -77z m1539 -168 c30 -132 59 -252 62 -267 l7 -28 -84 0 -85 0 -8 43
-9 42 -59 0 -59 0 -9 -42 -8 -43 -85 0 c-77 0 -85 2 -80 18 3 9 30 125 61 257
30 132 57 246 60 253 3 9 34 12 122 10 l118 -3 56 -240z m1129 -25 l0 -270
-80 0 -80 0 0 270 0 270 80 0 80 0 0 -270z m387 250 c18 -11 46 -38 62 -60 87
-120 58 -355 -52 -428 -37 -25 -50 -27 -159 -31 l-118 -3 0 271 0 271 118 0
c99 0 122 -3 149 -20z m513 -50 l0 -70 -70 0 -70 0 0 -30 c0 -29 1 -30 50 -30
l51 0 -3 -67 -3 -68 -47 -3 c-46 -3 -48 -5 -48 -33 l0 -29 70 0 70 0 0 -70 0
-70 -155 0 -155 0 0 270 0 270 155 0 155 0 0 -70z m249 -12 l39 -83 1 83 1 82
80 0 80 0 0 -270 0 -270 -63 0 -63 0 -36 78 -36 77 -1 -77 -1 -78 -80 0 -80 0
0 270 0 270 60 0 60 0 39 -82z m611 -38 l0 -120 -40 0 -40 0 0 -150 0 -150
-80 0 -80 0 0 150 0 150 -40 0 -40 0 0 120 0 120 160 0 160 0 0 -120z m398 53
l-3 -68 -67 -3 c-68 -3 -68 -3 -68 -32 0 -29 2 -30 45 -30 l45 0 0 -70 0 -70
-45 0 c-43 0 -45 -1 -45 -30 l0 -30 70 0 70 0 0 -70 0 -70 -155 0 -155 0 0
270 0 270 155 0 156 0 -3 -67z"/>
<path d="M3199 3556 c-14 -29 -5 -71 16 -80 24 -9 50 40 39 72 -13 36 -41 40
-55 8z"/>
<path d="M4081 3522 c-6 -29 -11 -55 -11 -57 0 -3 11 -5 25 -5 24 0 26 2 19
38 -14 76 -20 81 -33 24z"/>
<path d="M5680 3510 c0 -64 1 -65 30 -50 39 21 31 110 -10 110 -18 0 -20 -6
-20 -60z"/>
<path d="M9417 5583 c-4 -3 -7 -782 -7 -1730 l0 -1723 -347 -1 c-192 -1 -1023
-2 -1848 -3 l-1500 -1 -3 -142 -3 -143 1933 0 c1820 0 1935 1 1968 18 19 9 45
32 57 51 l23 34 0 1823 0 1824 -133 0 c-74 0 -137 -3 -140 -7z"/>
<path d="M2659 5148 c-65 -32 -189 -111 -244 -155 -65 -53 -200 -192 -249
-258 -255 -338 -351 -777 -261 -1190 17 -78 43 -165 55 -187 6 -10 10 -23 10
-28 0 -15 56 -131 99 -205 85 -148 239 -320 381 -426 165 -124 351 -207 570
-255 129 -29 441 -26 564 5 171 42 330 103 323 125 -4 12 -39 31 -131 71 -67
29 -173 43 -386 51 -232 8 -342 26 -480 76 -374 134 -645 453 -737 862 -25
112 -22 357 6 471 32 132 39 150 109 295 28 58 59 128 70 155 44 111 124 270
163 324 22 31 67 97 100 146 32 50 71 105 85 123 15 17 24 32 22 32 -3 0 -34
-14 -69 -32z"/>
</g>
</svg>
